<svg xmlns="http://www.w3.org/2000/svg" xmlns:xlink="http://www.w3.org/1999/xlink" width="36.622" height="28.012" viewBox="0 0 36.622 28.012">
  <defs>
    <clipPath id="clip-path">
      <rect id="Rectangle_20" data-name="Rectangle 20" width="36.622" height="28.012" fill="#1d3e7c"/>
    </clipPath>
  </defs>
  <g id="Eye_color_icon" data-name="Eye color icon" transform="translate(0 -4.25)">
    <g id="Group_38" data-name="Group 38" transform="translate(0 4.25)" clip-path="url(#clip-path)">
      <path id="Path_5" data-name="Path 5" d="M18.9,79.235a20.324,20.324,0,0,1-9.354-2.176A30.413,30.413,0,0,1,.218,69.914C.007,69.678-.116,69.5.159,69.2a29.264,29.264,0,0,1,12.323-8.406,17.617,17.617,0,0,1,7.019-.939,20.219,20.219,0,0,1,7.535,2.129,30.509,30.509,0,0,1,9.28,7.092c.4.451.406.455.008.9a29.375,29.375,0,0,1-11.585,8.072A17.454,17.454,0,0,1,18.9,79.235m-.584-17.2a7.487,7.487,0,1,0,7.464,7.539,7.475,7.475,0,0,0-7.464-7.539M26.52,74.756a.4.4,0,0,0,.323-.092,29,29,0,0,0,6.6-4.89c.219-.216.15-.344-.032-.524a28.987,28.987,0,0,0-6.475-4.815.59.59,0,0,0-.411-.141,9.837,9.837,0,0,1,0,10.461m-16.429.023a9.842,9.842,0,0,1-.017-10.48c-.049-.009-.074-.022-.092-.015a1.716,1.716,0,0,0-.2.088A29.328,29.328,0,0,0,3.16,69.28c-.219.215-.151.343.031.523A29.067,29.067,0,0,0,9.6,74.584a1.076,1.076,0,0,0,.489.195" transform="translate(0 -51.223)" fill="#1d3e7c"/>
      <path id="Path_6" data-name="Path 6" d="M14.255,45.1c-.013.131-.1.177-.179.234-.428.324-.862.642-1.286.971-.18.14-.3.126-.439-.062q-1.443-1.94-2.9-3.868c-.138-.183-.13-.3.061-.439.437-.313.866-.637,1.29-.967.182-.142.3-.125.44.062.962,1.293,1.933,2.58,2.9,3.871a1.944,1.944,0,0,1,.117.2" transform="translate(-8.011 -35.009)" fill="#1d3e7c"/>
      <path id="Path_7" data-name="Path 7" d="M216.466,42.107c-.039.061-.086.144-.142.219-.945,1.262-1.9,2.519-2.833,3.786-.166.224-.3.255-.516.077-.409-.329-.833-.641-1.259-.948a.245.245,0,0,1-.062-.412q1.468-1.944,2.926-3.9c.093-.124.184-.228.35-.1q.716.539,1.433,1.075a.216.216,0,0,1,.1.2" transform="translate(-181.197 -34.921)" fill="#1d3e7c"/>
      <path id="Path_8" data-name="Path 8" d="M121.98,2.729c0,.776-.008,1.552,0,2.327,0,.271-.076.389-.365.379-.5-.018-1-.013-1.5,0-.241.005-.342-.077-.34-.329q.011-2.381,0-4.762c0-.239.074-.348.328-.342.513.012,1.027.014,1.54,0,.277-.008.344.116.341.366-.01.788,0,1.575,0,2.363" transform="translate(-102.581 0)" fill="#1d3e7c"/>
      <path id="Path_9" data-name="Path 9" d="M64.969,16.2c0,.127-.082.163-.155.2-.512.257-1.026.509-1.536.769a.235.235,0,0,1-.371-.125q-.963-1.939-1.938-3.871c-.1-.2-.047-.3.142-.39q.742-.356,1.473-.735c.194-.1.3-.056.392.136.635,1.282,1.279,2.561,1.919,3.841.032.063.056.13.075.176" transform="translate(-52.173 -10.271)" fill="#1d3e7c"/>
      <path id="Path_10" data-name="Path 10" d="M167.622,17.283c-.052-.023-.119-.048-.183-.08-.47-.234-.936-.477-1.412-.7-.22-.1-.275-.213-.159-.442q.956-1.884,1.89-3.78c.106-.215.222-.281.447-.163q.7.366,1.41.7c.22.1.266.228.153.45-.642,1.267-1.274,2.54-1.912,3.81-.046.092-.078.208-.235.2" transform="translate(-142.007 -10.329)" fill="#1d3e7c"/>
      <path id="Path_11" data-name="Path 11" d="M108.052,111.363a3.25,3.25,0,1,1,3.27-3.223,3.219,3.219,0,0,1-3.27,3.223m.013-2.217a1.035,1.035,0,1,0-1.03-1.039,1.076,1.076,0,0,0,1.03,1.039" transform="translate(-89.772 -89.81)" fill="#1d3e7c"/>
    </g>
  </g>
</svg>
