<svg id="Hair_color_icon" data-name="Hair color icon" xmlns="http://www.w3.org/2000/svg" xmlns:xlink="http://www.w3.org/1999/xlink" width="36.748" height="31.407" viewBox="0 0 36.748 31.407">
  <defs>
    <clipPath id="clip-path">
      <rect id="Rectangle_22" data-name="Rectangle 22" width="36.748" height="31.407" fill="#1d3e7c"/>
    </clipPath>
  </defs>
  <g id="Group_43" data-name="Group 43" clip-path="url(#clip-path)">
    <path id="Path_14" data-name="Path 14" d="M3.473,10.057c-.093-.192-.175-.339-.238-.493A1.656,1.656,0,0,1,3.7,7.585a2.8,2.8,0,0,1,.87-.563,7.149,7.149,0,0,0,1.573-.913,25.737,25.737,0,0,1,7.035-3.187q1.289-.387,2.6-.675a.751.751,0,0,0,.452-.165,2.293,2.293,0,0,0-.746-.338,10.53,10.53,0,0,0-1.6-.413c-.076-.014-.189,0-.212-.1s.076-.169.157-.216a1.4,1.4,0,0,1,.946-.084,7.754,7.754,0,0,1,1.84.589.846.846,0,0,0,.44.13A6.657,6.657,0,0,0,15.078.339c-.066-.027-.138-.042-.2-.075S14.653.224,14.7.093c.032-.1.158-.1.252-.085a4.485,4.485,0,0,1,.627.145,24.343,24.343,0,0,1,2.234.979,32.418,32.418,0,0,0,6.779,2.073,10.3,10.3,0,0,1,3.018,1,2.194,2.194,0,0,1,1.19,1.8c.069.823.147.838.944,1.061A10.056,10.056,0,0,1,36.4,12.329a3.205,3.205,0,0,1,.346,1.022,6.278,6.278,0,0,0-3.022-1.92c.276.361.507.647.72.945a11.657,11.657,0,0,1,1.914,3.67,2.516,2.516,0,0,1-.374,2.315,26.739,26.739,0,0,0-3.372,6.51,17.732,17.732,0,0,0-.676,3.04,15.786,15.786,0,0,1-.646,2.681,1.863,1.863,0,0,1-.362.655c-.245.252-.434.207-.543-.13a7.632,7.632,0,0,1-.271-1.732c-.069-.822-.117-1.646-.137-2.47-.038-1.6-.081-3.206-.064-4.808.014-1.315,0-2.632.106-3.944a.915.915,0,0,0-.445-.846,7.193,7.193,0,0,0-1.489-.783,20.535,20.535,0,0,0-2.337-.813c-.086-.025-.172-.091-.3.007a12.24,12.24,0,0,1,1.34,1.188,4.888,4.888,0,0,1,1.227,1.916,2.113,2.113,0,0,1,.05,1.236c-.022.078-.032.188-.135.178-.048,0-.1-.094-.128-.155a7.413,7.413,0,0,0-.616-1.174,2.933,2.933,0,0,0-1.559-1.292c-.032.157.063.258.114.367a17.892,17.892,0,0,1,1.485,4.219,3.341,3.341,0,0,1,.04,1.423,1.868,1.868,0,0,1-.248.592c-.063.1-.133.225-.271.2s-.109-.175-.127-.27a19.835,19.835,0,0,0-.767-3.058,8.523,8.523,0,0,0-2.76-4.155,8.216,8.216,0,0,0-4.825-1.793,19.4,19.4,0,0,0-6.949,1.007,9.4,9.4,0,0,1-4.853.261c-.415-.078-.425-.069-.342.362q.153.792.3,1.586a.447.447,0,0,1-.04.367c-.32-.255-.634-.5-.944-.754-.178-.145-.278-.16-.308.116-.038.344-.1.686-.166,1.026a.642.642,0,0,0,.105.407,6.759,6.759,0,0,1,.569,1.658c.021.119.077.294-.06.359s-.191-.109-.268-.19a3.275,3.275,0,0,0-.781-.66A4.9,4.9,0,0,1,4.891,21.7a3.1,3.1,0,0,1,.034.391c0,.1-.016.211-.113.245s-.13-.081-.187-.138a1.4,1.4,0,0,0-.236-.215.5.5,0,0,0-.475-.084c-.188.085-.128.266-.129.412,0,1.735.018,3.47-.016,5.2a13.358,13.358,0,0,1-.27,2.707c-.049.216-.068.512-.323.549-.229.033-.34-.232-.447-.413a9.925,9.925,0,0,1-.991-2.945c-.526-2.324-.728-4.7-1.076-7.05C.446,18.9.277,17.423.108,15.951a13.252,13.252,0,0,1-.1-2.184,2.6,2.6,0,0,1,.523-1.319,7.116,7.116,0,0,1,1.911-1.924,3.083,3.083,0,0,1,1.027-.467" transform="translate(0 0)" fill="#1d3e7c"/>
  </g>
</svg>
