<svg id="Hight_icon" data-name="Hight icon" xmlns="http://www.w3.org/2000/svg" xmlns:xlink="http://www.w3.org/1999/xlink" width="36.074" height="36.179" viewBox="0 0 36.074 36.179">
  <defs>
    <clipPath id="clip-path">
      <rect id="Rectangle_21" data-name="Rectangle 21" width="36.074" height="36.179" fill="#1d3e7c"/>
    </clipPath>
  </defs>
  <g id="Group_40" data-name="Group 40" clip-path="url(#clip-path)">
    <path id="Path_12" data-name="Path 12" d="M0,18.017C0,13.56,0,9.1.008,4.647A4.267,4.267,0,0,1,4.593.012c2.6-.014,5.192-.019,7.788,0A4.171,4.171,0,0,1,16.8,4.395q.024,13.564,0,27.129A4.264,4.264,0,0,1,12.423,36q-4.023.068-8.047,0A4.264,4.264,0,0,1,.011,31.516c-.019-4.5-.005-9-.006-13.5m2.52-.115c0,4.281-.011,8.562,0,12.843.007,1.871.644,2.5,2.487,2.508,2.205.011,4.411.005,6.616,0A5.8,5.8,0,0,0,12.8,33.2c1.122-.234,1.657-1.254,1.5-2.644-.136-1.193-1.04-.792-1.693-.84-.947-.07-1.9,0-2.848-.091-.816-.078-1.418-.547-1.335-1.443.076-.827.7-1.138,1.478-1.145,1.081-.01,2.164-.051,3.242,0,.939.047,1.186-.375,1.176-1.239-.01-.827-.19-1.325-1.147-1.3-1.079.032-2.163.02-3.241-.042-.791-.046-1.513-.376-1.5-1.29.013-.97.738-1.294,1.608-1.308,1.081-.018,2.163-.044,3.243-.006.94.033,1.032-.511,1.03-1.247s-.092-1.286-1.027-1.259c-1.08.031-2.162.019-3.243-.015-.857-.027-1.611-.359-1.605-1.324s.756-1.29,1.616-1.313c1.08-.029,2.163-.044,3.243-.014s1-.681,1.012-1.4c.013-.753-.008-1.39-1.058-1.341-1.122.053-2.248.011-3.372,0-.853-.006-1.478-.374-1.456-1.281.019-.827.626-1.191,1.413-1.206,1.081-.021,2.163-.049,3.242,0,.865.036,1.26-.233,1.246-1.171C14.3,9.4,14.13,8.881,13.1,8.915a31.179,31.179,0,0,1-3.368-.07c-.757-.057-1.361-.48-1.316-1.32A1.3,1.3,0,0,1,9.837,6.294c.907-.038,1.816-.022,2.724-.026,1.721-.007,2.114-.533,1.632-2.208a2.071,2.071,0,0,0-2.271-1.531c-2.249,0-4.5-.01-6.746,0-1.975.01-2.644.676-2.649,2.658-.01,4.238,0,8.476,0,12.713" transform="translate(0 0)" fill="#1d3e7c"/>
    <path id="Path_13" data-name="Path 13" d="M199.644,34.684V7.96c-.718.626-1.274,1.139-1.86,1.615a1.288,1.288,0,1,1-1.708-1.909q2.015-1.927,4.071-3.812a1.325,1.325,0,0,1,1.974.083q1.9,1.768,3.752,3.584a1.3,1.3,0,0,1,.108,2.048c-.663.632-1.347.389-1.95-.186-.435-.414-.871-.828-1.491-1.416V34.208c.737-.232,1.06-.841,1.55-1.236a1.228,1.228,0,0,1,1.753-.075,1.245,1.245,0,0,1,.227,1.85A33.7,33.7,0,0,1,201.8,38.9a1.162,1.162,0,0,1-1.648-.143c-1.366-1.261-2.727-2.528-4.069-3.815A1.249,1.249,0,0,1,195.954,33c.6-.61,1.254-.43,1.848.08.549.471,1.092.949,1.843,1.6" transform="translate(-170.363 -3.006)" fill="#1d3e7c"/>
  </g>
</svg>
